<?xml version="1.0" encoding="UTF-8" standalone="no"?>
<!-- Created with Inkscape (http://www.inkscape.org/) -->

<svg
   version="1.1"
   id="svg476"
   width="160"
   height="160"
   viewBox="0 0 160 160"
   sodipodi:docname="Logo.svg"
   inkscape:version="1.2.2 (b0a8486541, 2022-12-01)"
   xmlns:inkscape="http://www.inkscape.org/namespaces/inkscape"
   xmlns:sodipodi="http://sodipodi.sourceforge.net/DTD/sodipodi-0.dtd"
   xmlns="http://www.w3.org/2000/svg"
   xmlns:svg="http://www.w3.org/2000/svg">
  <defs
     id="defs480" />
  <sodipodi:namedview
     id="namedview478"
     pagecolor="#ffffff"
     bordercolor="#000000"
     borderopacity="0.25"
     inkscape:showpageshadow="2"
     inkscape:pageopacity="0.0"
     inkscape:pagecheckerboard="0"
     inkscape:deskcolor="#d1d1d1"
     showgrid="false"
     inkscape:zoom="3.7211494"
     inkscape:cx="52.000062"
     inkscape:cy="99.566009"
     inkscape:window-width="1878"
     inkscape:window-height="1011"
     inkscape:window-x="42"
     inkscape:window-y="32"
     inkscape:window-maximized="1"
     inkscape:current-layer="g482" />
  <g
     inkscape:groupmode="layer"
     inkscape:label="Image"
     id="g482">
    <g
       id="g486"
       transform="translate(-2.8172313,1.0735835)">
      <path
         style="fill:#cdb08f;stroke-width:0.32"
         d="m 32.315274,156.68581 c -0.618599,-0.42162 -1.329392,-1.14901 -1.579541,-1.61641 -0.525563,-0.98202 -0.545368,-0.91398 2.709582,-9.3094 1.091779,-2.816 2.725223,-7.03115 3.629869,-9.36701 0.90465,-2.33585 1.644816,-4.36805 1.644816,-4.516 0,-0.14794 -0.988758,-1.00424 -2.197242,-1.90288 -5.636275,-4.19117 -11.606663,-12.34948 -15.950201,-21.79534 -0.773591,-1.68233 -1.754146,-3.71755 -2.179012,-4.52273 -0.424866,-0.80517 -0.981503,-2.24517 -1.236972,-3.2 C 16.901105,99.501219 16.300148,97.28 15.821114,95.52 14.73766,91.539328 14.560719,85.729165 15.438279,82.948986 17.257775,77.184682 22.146579,72.941802 29.12,71.074938 33.383968,69.933424 36.471613,69.668451 43.712618,69.82265 47.478678,69.90285 50.56,69.9215 50.56,69.8641 50.56,69.80669 49.0792,67.923793 47.269334,65.679866 41.874816,58.991581 38.603341,53.589213 36.756835,48.32 c -1.050361,-2.997325 -1.081753,-9.05664 -0.0584,-11.271933 1.956685,-4.235709 5.912189,-7.027881 11.858768,-8.371057 6.145472,-1.388099 12.27362,-1.300119 18.442612,0.264773 2.501929,0.634667 4.218352,1.270102 9.671616,3.580524 0.198038,0.0839 0.670278,-0.7309 1.0819,-1.866707 0.999898,-2.759062 3.037524,-6.771392 6.711424,-13.2156 3.423581,-6.005137 4.017828,-7.274748 3.741728,-7.9942528 C 87.964662,8.8155651 86.281517,8.8116112 85.76,9.44 85.30687,9.9859894 83.979098,10.08395 83.676134,9.593744 83.012314,8.5196627 86.18224,3.7298803 88.551139,2.2275678 91.076483,0.62604317 92.344301,1.0279788 92.810595,3.5779392 93.37751,6.6781581 92.134349,11.085287 85.912714,28.031621 82.970976,36.044243 82.890038,36.335971 83.47993,36.8 c 0.335609,0.264 1.711929,1.332557 3.058492,2.37457 6.924202,5.358169 13.671278,17.022006 16.211628,28.02543 0.9869,4.274698 1.21847,12.30216 0.46251,16.032957 -1.47912,7.299779 -9.925357,24.297483 -16.543946,33.294013 -5.011961,6.81267 -9.383296,10.79094 -13.668425,12.43937 -6.670816,2.56617 -14.467949,4.11526 -17.66336,3.50927 -2.2252,-0.422 -2.536829,-0.40084 -2.536829,0.17231 0,0.70621 -1.389002,1.13827 -4.436112,1.37988 l -2.676112,0.2122 -1.886605,4.64 c -1.037632,2.552 -2.194361,5.432 -2.570505,6.4 -0.971386,2.49984 -3.43528,8.61028 -3.96144,9.82434 -0.881332,2.03359 -3.203124,2.77479 -4.953952,1.58147 z m 2.975004,-0.31633 c 1.23768,-0.51746 1.223437,-0.49051 4.085792,-7.72948 3.550336,-8.97889 5.777149,-14.36685 6.100301,-14.7602 0.162759,-0.1981 1.520307,-0.42445 3.016778,-0.503 1.49647,-0.0785 2.86352,-0.28547 3.037885,-0.45983 0.209372,-0.20938 -0.526496,-0.66667 -2.167002,-1.34665 -2.904717,-1.20399 -4.28648,-2.07265 -7.460806,-4.69032 -1.28056,-1.056 -3.09266,-2.53097 -4.026884,-3.27771 -0.934227,-0.74674 -1.948041,-1.75474 -2.252928,-2.24 -0.683673,-1.08815 -2.706169,-3.62583 -4.34516,-5.45199 -0.676121,-0.75333 -1.508857,-2.02185 -1.850525,-2.81893 -0.341668,-0.79708 -1.263394,-2.44194 -2.048279,-3.65525 -0.784886,-1.21331 -1.814572,-3.18479 -2.288191,-4.38107 -0.473619,-1.19628 -1.189119,-2.831 -1.59,-3.63272 -0.40088,-0.80172 -0.819297,-2.025722 -0.929815,-2.720004 C 22.460927,98.008048 22.22208,96.504 22.040674,95.36 21.859268,94.216 21.556933,92.875549 21.36882,92.381216 c -0.243502,-0.639878 -0.241789,-1.377312 0.0059,-2.56 0.191384,-0.913667 0.507615,-2.47551 0.702737,-3.470762 0.532236,-2.714758 1.820746,-5.009856 4.029483,-7.177324 2.262952,-2.220672 2.490688,-2.326407 7.493015,-3.478912 3.5809,-0.825018 3.822189,-0.839456 8.96,-0.536256 6.275933,0.370368 7.00136,0.458086 10.81674,1.307948 1.615068,0.359748 3.092736,0.65409 3.283705,0.65409 0.190973,0 -0.754294,-2.124 -2.100592,-4.72 -1.346297,-2.596 -2.930025,-6.16 -3.519398,-7.92 -0.589373,-1.76 -1.451565,-4.108064 -1.915981,-5.21792 -0.464413,-1.109856 -0.910013,-2.562365 -0.990221,-3.227792 -0.08021,-0.66543 -0.369709,-2.205366 -0.643334,-3.42208 -0.273626,-1.216714 -0.615914,-2.775334 -0.76064,-3.463597 -0.181091,-0.861203 -0.07657,-2.285945 0.335206,-4.569382 0.527591,-2.925626 0.738176,-3.485277 1.78081,-4.732599 3.341344,-3.997318 12.811913,-4.862048 19.467219,-1.777494 1.059568,0.491082 2.761312,1.132429 3.781651,1.425216 1.020343,0.29279 1.938263,0.74889 2.039824,1.013558 0.101565,0.264669 -0.574518,2.454663 -1.5024,4.866653 -0.927885,2.411991 -2.177104,5.666173 -2.776041,7.231517 -0.598941,1.565344 -1.045687,3.146115 -0.992765,3.512829 0.107725,0.746493 3.938713,3.533613 4.531504,3.296761 0.200592,-0.08015 1.133011,-2.213459 2.072041,-4.740697 1.579741,-4.251597 2.791232,-7.467338 3.62986,-9.634973 0.187251,-0.484 0.556582,-0.88 0.820736,-0.88 0.602601,0 5.390755,4.638048 7.448755,7.215245 0.849955,1.064387 2.369664,3.512387 3.377129,5.44 1.007463,1.927616 2.088295,3.835517 2.401847,4.239782 0.313552,0.404266 0.662121,1.196266 0.774598,1.76 0.33216,1.664771 1.441821,5.118426 1.938839,6.034346 0.72192,1.330371 0.583139,1.722457 -1.379092,3.896317 -3.244784,3.594736 -8.110704,10.718662 -10.227232,14.973129 -1.10702,2.225245 -2.012768,4.276227 -2.012768,4.557738 0,0.28151 -0.568432,1.742205 -1.26318,3.245987 C 79.56279,98.5832 78.08,103.16442 78.08,104.47252 c 0,0.47299 -0.348035,1.89216 -0.773414,3.15373 -0.939328,2.78581 -1.466586,5.27014 -1.466586,6.91025 0,0.67375 -0.232835,2.25602 -0.517411,3.51617 -0.399712,1.76998 -0.465501,3.05278 -0.289207,5.63925 0.136628,2.0045 0.364506,3.34808 0.567853,3.34808 0.594528,0 3.688125,-2.56293 5.735783,-4.75188 4.694499,-5.01843 9.888051,-13.0421 14.833481,-22.916651 C 99.583565,92.556592 101.8972,86.8464 102.59313,83.52 103.32787,80.008106 103.07133,71.00913 102.11999,66.92359 100.37596,59.433725 96.944634,52.161046 92.157434,45.807952 89.65808,42.491059 88.086685,40.904544 85.04,38.622048 c -1.364,-1.021875 -2.48,-2.071603 -2.48,-2.33273 0,-0.261129 1.527088,-4.680878 3.39353,-9.821668 C 91.848627,10.230622 92.890429,6.4048032 92.245946,3.36 92.004326,2.2184931 91.862928,2.0690827 90.939098,1.9790981 89.634829,1.8520575 88.043475,2.8065024 86.592509,4.5860518 85.13967,6.3678963 84.048246,8.5272147 84.286557,9.1482422 c 0.169865,0.4426596 0.324544,0.4229319 1.27119,-0.1621292 1.325837,-0.8194106 1.844723,-0.8334304 2.781165,-0.075145 0.724419,0.5865991 0.725674,0.6013191 0.169645,1.990978 -0.308096,0.770005 -1.969405,3.85207 -3.691799,6.849032 C 80.91351,24.542629 79.840179,26.648235 78.532042,30.08 77.558022,32.635251 77.440246,32.797792 76.58761,32.763571 76.088426,32.743533 74.096,32.066848 72.16,31.259827 67.179456,29.183685 63.078413,28.39378 57.28,28.39378 c -7.252192,0 -12.052013,1.182792 -15.97943,3.937718 -1.960506,1.375216 -2.692455,2.21608 -3.898263,4.47832 C 36.716163,38.097107 36.64,38.639648 36.64,42.24 c 0,4.547856 0.288912,5.706749 2.61064,10.471837 1.889696,3.878387 5.070349,8.608339 9.055094,13.46584 1.776602,2.165725 3.160436,4.050537 3.075184,4.188473 -0.08525,0.13794 -3.454892,0.182797 -7.488092,0.09968 -9.987501,-0.205817 -14.085692,0.400909 -19.155303,2.835895 -5.214452,2.504553 -8.391294,6.652576 -9.130722,11.922041 -0.725644,5.171232 1.007151,13.430068 4.236583,20.192384 0.878139,1.83879 1.596616,3.43057 1.596616,3.5373 0,0.47341 5.364089,9.53077 6.994711,11.81069 2.492583,3.48512 5.394444,6.54997 8.203011,8.66376 1.305232,0.98235 2.453929,1.91679 2.552662,2.07654 0.159114,0.25745 -0.63,2.43173 -4.360813,12.01556 -2.847818,7.31556 -3.789571,9.96425 -3.789571,10.65819 0,0.90422 1.705997,2.62181 2.604118,2.62181 0.33904,0 1.079812,-0.19373 1.64616,-0.43052 z M 83.237738,113.68 c -1.252957,-4.89862 -0.284551,-14.307766 2.264275,-22 1.93672,-5.844931 5.853769,-12.867885 9.267702,-16.61624 2.007744,-2.204419 2.325824,-1.971267 2.78185,2.039078 0.526864,4.633354 0.469417,5.928698 -0.457664,10.319581 -2.215779,10.494487 -6.081434,19.629261 -10.840858,25.617581 -1.763421,2.21874 -2.56783,2.38948 -3.015305,0.64 z m 2.957395,-1.44 C 90.936976,105.88232 94.344458,97.73328 96.469434,87.668864 96.915245,85.557386 97.28,82.928326 97.28,81.826512 c 0,-2.191901 -0.574832,-7.311174 -0.851018,-7.578896 -0.597203,-0.578902 -5.69808,6.87953 -7.966198,11.648064 -2.900186,6.097405 -4.294605,11.287866 -4.949699,18.42432 -0.446941,4.86889 -0.03184,10.24 0.791382,10.24 0.08817,0 0.93897,-1.044 1.890666,-2.32 z m -32.715431,18.47959 c 5.843575,-0.46095 14.97456,-2.18379 19.160298,-3.61517 1.723328,-0.58933 1.762051,-0.6296 1.8584,-1.93314 0.05587,-0.75589 -0.04267,-1.33128 -0.227997,-1.33128 -0.179517,0 -1.087798,0.27982 -2.0184,0.62183 -5.703325,2.09605 -17.101353,3.85817 -24.955968,3.85817 -1.196819,0 -2.176035,0.12111 -2.176035,0.26914 0,0.60493 4.520627,2.68574 5.319702,2.44861 0.197837,-0.0587 1.565837,-0.20188 3.04,-0.31816 z M 52.8,123.19949 c 5.688902,-0.50616 12.29032,-1.90749 17.6,-3.73607 3.102182,-1.06835 4.06593,-1.56972 4.470515,-2.3257 0.316695,-0.59175 0.465456,-2.25772 0.201597,-2.25772 -0.07034,0 -1.474336,0.52622 -3.12,1.16937 -9.008736,3.52078 -18.919914,5.1344 -29.632112,4.82434 -6.580678,-0.19047 -6.929066,-0.10777 -5.439837,1.29129 0.39609,0.3721 1.08009,0.82008 1.52,0.9955 1.018301,0.40604 10.001027,0.43037 14.399837,0.039 z M 52,115.70765 c 4.758323,-0.76175 9.528986,-1.92742 13.927043,-3.40296 4.957491,-1.66324 10.504528,-4.09627 10.862048,-4.7643 0.33144,-0.61931 0.782343,-2.90039 0.573322,-2.90039 -0.08185,0 -1.791811,0.78097 -3.799914,1.73549 -3.739293,1.77742 -5.088454,2.32285 -8.442499,3.41306 -9.622704,3.12781 -18.152538,4.36473 -27.68,4.01388 -2.728,-0.10046 -5.428,-0.2771 -6,-0.39254 -1.278447,-0.25801 -1.371301,0.2521 -0.291525,1.60154 0.52508,0.65621 1.162837,1.00443 2.158411,1.17848 2.36376,0.41325 15.161671,0.0831 18.693114,-0.48226 z m -4.64,-7.69882 c 8.869027,-1.08366 18.177043,-3.76988 24.96,-7.20327 6.669766,-3.376091 7.779114,-4.214568 8.665475,-6.549602 0.329472,-0.867961 0.54609,-1.631059 0.481373,-1.695776 -0.06472,-0.06472 -1.465232,0.762138 -3.112256,1.837453 -12.654477,8.261905 -29.814912,12.507915 -46.658632,11.544755 -2.895222,-0.16555 -5.378694,-0.23014 -5.518827,-0.14354 -0.30521,0.18863 0.53032,1.89653 1.100591,2.2497 1.323125,0.81943 13.243652,0.79585 20.082276,-0.0397 z m -0.543683,-7.48954 C 59.636314,98.231171 70.24432,93.913478 80.64,86.752301 85.164915,83.635264 86.849408,82.029651 89.447619,78.35713 90.85143,76.372874 92.828,73.860426 93.84,72.773917 95.391699,71.107968 96.144576,69.76 95.523347,69.76 c -0.08616,0 -2.352758,2.247062 -5.036883,4.993475 C 84.5052,80.87353 81.428262,83.334832 74.452765,87.57913 64.55751,93.599981 52.341139,97.584909 40.652899,98.604502 c -3.858393,0.33658 -12.821997,0.199869 -16.128343,-0.24598 l -1.555443,-0.209744 0.229156,1.085609 c 0.126036,0.597088 0.353282,1.217713 0.504991,1.379163 0.512112,0.54499 4.580217,0.77499 11.97674,0.67713 5.742538,-0.076 8.189898,-0.24551 11.136317,-0.77139 z M 42.56,92.657808 c 9.898032,-1.307149 19.600355,-4.526278 28,-9.290109 5.650749,-3.2048 11.293344,-7.699894 17.28,-13.765865 5.51207,-5.585098 5.871091,-6.094816 5.286653,-7.50577 C 92.61656,60.864589 92.051389,60.86 91.149402,62.08 90.224627,63.330822 89.64463,63.290758 88.302774,61.883366 87.69625,61.247219 85.4,59.283373 83.2,57.519267 81,55.755158 79.1428,54.160048 79.07289,53.97457 c -0.197245,-0.523303 1.357081,-4.755175 1.810806,-4.930176 0.413117,-0.159335 2.752707,1.463961 5.771722,4.004643 3.735609,3.143734 1.82822,-0.04114 -2.975418,-4.968221 -1.76,-1.805229 -3.384518,-3.281917 -3.610042,-3.281526 -0.225526,3.2e-4 -0.4971,0.25271 -0.603507,0.56071 -0.106403,0.308 -0.519078,1.424 -0.917056,2.48 -1.531904,4.064778 -3.74727,9.958422 -4.055632,10.789389 -0.640461,1.725904 -0.992233,1.718297 -3.762067,-0.08134 C 69.085414,57.478413 68.16,56.669603 68.16,56.3004 c 0,-0.601568 0.68456,-2.501536 3.660512,-10.159574 C 72.799229,43.622282 73.6,41.299075 73.6,40.978147 c 0,-0.667862 -1.058797,-1.045859 -2.157274,-0.77016 -0.859273,0.215664 -3.67278,-0.90727 -4.944457,-1.973446 -2.351898,-1.971837 -10.999207,-1.864506 -15.019354,0.186419 -1.6096,0.821155 -1.393949,1.150208 0.431907,0.659021 2.403392,-0.646551 5.537728,-0.945815 6.996871,-0.668051 2.192419,0.417347 10.994803,4.311104 11.116598,4.917452 0.158551,0.789338 -0.909478,3.732695 -1.426429,3.931069 -0.25055,0.09614 -2.417542,-0.719165 -4.815539,-1.811795 -4.012179,-1.828125 -11.323129,-4.464397 -13.761312,-4.962221 -0.860742,-0.175747 -1.102253,-0.08097 -1.555184,0.610285 -0.583635,0.890742 -0.43672,1.78328 0.293539,1.78328 1.847428,0 15.646461,5.376083 18.135024,7.065382 l 0.744493,0.50538 -0.749379,2.003827 c -0.41216,1.102102 -0.947104,2.079696 -1.188765,2.172432 -0.241664,0.09273 -2.19919,-0.69888 -4.350064,-1.759139 -3.96815,-1.95608 -11.343769,-4.787146 -13.306576,-5.10761 l -1.075901,-0.175664 0.228042,1.087696 c 0.298326,1.422938 0.621568,1.704067 2.72376,2.368918 6.492982,2.053511 12.894538,5.236951 19.62104,9.757373 5.137952,3.452867 12.37896,9.521309 12.37896,10.374384 0,0.492019 -3.399184,3.387021 -3.976893,3.387021 -0.210851,0 -0.80631,-0.447661 -1.323238,-0.994803 C 73.363619,70.11863 66.70704,65.181299 60.53353,61.63361 56.732333,59.449197 49.41185,56.200742 48.943171,56.4904 c -0.330553,0.204294 0.265514,2.042147 0.900835,2.777552 0.260362,0.301376 0.995968,0.719936 1.634688,0.930134 2.806896,0.923728 12.828391,6.558087 15.561306,8.748986 0.704,0.564378 1.52799,1.161648 1.831088,1.327267 0.985235,0.538355 6.649184,5.919623 6.639485,6.308119 C 75.498861,77.052003 72.35801,79.36 71.730749,79.36 71.477875,79.36 70.33433,78.532 69.189539,77.52 64.613258,73.474544 60.388755,70.383136 55.590182,67.568259 52.938691,66.012874 52.16,65.679718 52.16,66.100678 c 0,0.09937 0.308032,0.89672 0.684518,1.771885 0.585796,1.361719 0.989623,1.770275 2.8,2.8328 C 59.768662,73.125856 68.8,80.154672 68.8,80.943875 c 0,0.159088 -0.396,0.493015 -0.88,0.742064 -0.484,0.249047 -1.50999,0.787507 -2.279978,1.196583 -0.924441,0.491132 -1.540224,0.644198 -1.812867,0.450624 -0.227088,-0.161229 -1.943523,-1.472266 -3.814301,-2.913412 -3.250953,-2.504364 -3.533574,-2.650806 -6.389404,-3.310729 -3.667309,-0.84744 -4.777415,-0.744595 -2.845162,0.263581 0.736058,0.384048 1.428038,0.843488 1.537734,1.020979 0.215981,0.349462 -1.681638,9.608861 -2.051577,10.010637 -0.344711,0.37438 -4.626554,1.202144 -4.881242,0.943638 -0.358214,-0.363584 0.315047,-5.009082 1.346717,-9.292358 0.522544,-2.169485 0.95008,-4.005485 0.95008,-4.08 0,-0.07452 -0.570422,-0.135482 -1.267603,-0.135482 -1.251693,0 -1.273834,0.02099 -1.764071,1.671786 -0.544976,1.835132 -1.608022,7.318969 -1.999337,10.313792 -0.287552,2.200723 -0.494835,2.32903 -3.848989,2.382524 l -2,0.0319 v -1.23855 c 0,-1.662125 1.15553,-8.307799 1.921302,-11.049776 0.339204,-1.21458 0.55842,-2.302685 0.487143,-2.41801 -0.185427,-0.300029 -2.378602,-9.6e-4 -2.598176,0.354438 -0.430237,0.696141 -1.438288,5.693159 -1.9108,9.472045 -0.720599,5.762909 -0.598519,5.56817 -3.419001,5.453882 L 28.96,90.72 29.069278,87.68 c 0.0601,-1.672 0.377218,-4.690886 0.7047,-6.708634 0.327482,-2.017747 0.528498,-3.735558 0.446703,-3.81735 -0.322401,-0.322403 -2.41122,0.964877 -2.668101,1.644275 C 27.320584,79.411875 26.407848,86.378003 26.158253,89.44 L 26.08,90.4 H 24 c -2.052769,0 -2.081375,0.01203 -2.185017,0.918982 -0.148277,1.297549 0.319072,1.611514 2.760325,1.854388 3.308181,0.329123 13.884318,0.02595 17.984692,-0.515562 z M 53.439578,86.8 c -2.34e-4,-0.308 0.304659,-1.82 0.677539,-3.36 0.51,-2.106317 0.807398,-2.798624 1.200422,-2.794448 0.787664,0.0084 4.522461,2.90415 4.522461,3.506496 0,1.000838 -0.810518,1.62159 -3.150653,2.412992 -2.790441,0.94369 -3.249209,0.976861 -3.249769,0.23496 z M 82.554019,67.76 C 81.764877,67.012 80.039395,65.464 78.71961,64.32 77.399824,63.176 76.230483,62.117408 76.121075,61.967578 75.720918,61.419565 77.435555,56.96 78.046416,56.96 c 0.579898,0 9.134675,7.222688 9.730307,8.215171 C 88.051306,65.632698 85.02024,69.12 84.34799,69.12 c -0.197545,0 -1.004832,-0.612 -1.793971,-1.36 z m 32.711571,62.19385 c -3.18305,-1.09944 -5.5234,-3.58288 -6.32075,-6.70719 -1.03331,-4.04887 0.51067,-8.52517 4.36357,-12.65081 3.47876,-3.72503 8.29318,-6.61727 13.19936,-7.92948 1.30436,-0.34886 1.56249,-0.33326 2.01772,0.12198 0.7821,0.7821 0.36535,1.36042 -1.81951,2.52494 -2.63793,1.406 -6.46573,5.02827 -8.33658,7.88894 -2.73134,4.17644 -3.69911,8.93301 -2.37992,11.69731 1.9164,4.01574 7.58742,3.69002 12.40097,-0.71225 2.70153,-2.47071 4.60063,-5.16241 6.67953,-9.46729 2.10372,-4.35626 3.01828,-7.58821 3.53586,-12.49536 0.9784,-9.276195 -2.5164,-14.696973 -10.72292,-16.632275 -3.49666,-0.824599 -3.65316,-0.774855 -6.81976,2.167635 -1.56258,1.452 -4.06103,3.72 -5.55211,5.04 -1.49108,1.32 -2.85505,2.554176 -3.03105,2.742614 -0.53286,0.570519 -5.98723,4.165076 -7.42725,4.894736 -2.69941,1.36779 -3.03073,0.85115 -1.58846,-2.477004 3.23792,-7.471754 9.02942,-12.626263 16.62706,-14.798314 2.4988,-0.714368 2.74548,-0.870253 4.99379,-3.155731 5.72338,-5.818 11.67462,-13.861632 13.54541,-18.307834 3.2168,-7.645213 -0.4756,-12.273446 -8.50349,-10.658691 -5.54312,1.114963 -12.90725,5.595302 -20.00429,12.17063 l -2.03723,1.887469 -0.60277,-0.744387 C 107.15124,63.944074 106.88,63.349997 106.88,63.033315 c 0,-0.988141 7.36775,-7.144233 13.28485,-11.100102 12.07862,-8.075136 21.25929,-9.488371 26.07775,-4.014307 3.66103,4.159139 2.63032,9.473993 -3.3763,17.409958 -2.57166,3.397677 -8.44684,9.810755 -12.11534,13.224541 -1.92682,1.79303 -3.0797,3.093568 -2.94112,3.317801 0.12536,0.202836 0.875,0.368794 1.66588,0.368794 0.79087,0 2.4703,0.234803 3.73207,0.521789 6.94669,1.57999 11.52555,5.846365 13.19689,12.296256 1.30839,5.049265 0.39356,11.725125 -2.39035,17.443205 -2.68201,5.50879 -7.57613,11.23348 -12.05076,14.09586 -5.3933,3.45005 -12.36834,4.85222 -16.69798,3.35674 z m 8.57441,-0.49104 c 7.88776,-1.69162 15.2844,-8.18774 19.68251,-17.28624 2.08431,-4.31187 2.78127,-7.23405 2.79599,-11.72287 0.0133,-4.058631 -0.42813,-6.143159 -1.90314,-8.986897 -2.64333,-5.096185 -8.12939,-8.274307 -15.11521,-8.756368 -1.13292,-0.07818 -2.21266,-0.294941 -2.39941,-0.481696 -0.2394,-0.239401 0.85692,-1.491193 3.71705,-4.244144 13.04092,-12.552262 18.44795,-21.077225 16.9291,-26.691139 -0.55016,-2.033485 -2.1864,-3.949757 -4.29205,-5.026627 -1.6398,-0.838624 -2.15516,-0.939875 -4.78625,-0.940339 -1.75043,-3.08e-4 -3.7938,0.220832 -5.02859,0.544211 -5.71336,1.496265 -15.71118,7.709033 -23.92,14.864176 -1.95787,1.706557 -2.2823,2.323632 -1.70293,3.238976 0.22568,0.356547 0.75633,0.02243 2.4751,-1.558474 9.13122,-8.39871 18.65459,-13.209565 24.10352,-12.176198 3.21848,0.610374 4.75085,1.741853 5.59349,4.130163 0.70136,1.987856 0.60737,3.351229 -0.4381,6.354739 -1.59665,4.587011 -5.8615,10.646839 -12.90678,18.338941 l -3.39163,3.703027 -2.50634,0.721165 c -5.49647,1.581539 -10.22599,4.655891 -13.21279,8.588765 -1.64483,2.165846 -4.70218,7.982049 -4.3703,8.313929 0.62454,0.62453 7.29278,-3.771123 12.03676,-7.934547 1.848,-1.621846 4.55757,-4.079785 6.02126,-5.462086 3.01493,-2.847271 3.07058,-2.862586 6.87045,-1.890743 3.62432,0.926944 5.66518,2.020855 7.64746,4.099069 2.97044,3.114192 4.09401,7.294659 3.4838,12.962197 -1.0104,9.38455 -5.18791,17.84765 -11.42083,23.13716 -4.90327,4.16111 -10.41286,3.95939 -12.36453,-0.4527 -1.28302,-2.90047 -0.33074,-7.65608 2.36011,-11.78616 1.69926,-2.60812 6.38463,-7.06078 8.70649,-8.27406 2.17178,-1.13486 2.43631,-1.91554 0.56398,-1.6644 -1.48146,0.1987 -5.73273,1.99001 -8.28417,3.49059 -2.76573,1.62662 -6.78758,5.78054 -8.0173,8.28058 -3.18927,6.48385 -1.28278,12.44447 4.65814,14.56365 1.58524,0.56547 5.7886,0.56764 8.41514,0.004 z M 105.88322,48.838522 c -3.02496,-1.081005 -4.83267,-3.412836 -5.02838,-6.486295 -0.17724,-2.783616 0.50631,-4.494317 2.5188,-6.303721 l 1.56752,-1.409338 -0.65054,-2.359584 c -0.90724,-3.29067 -2.57697,-6.626001 -4.24695,-8.483425 -1.284566,-1.428744 -2.300166,-2.044034 -5.40367,-3.273751 -0.677446,-0.268428 -0.88,-0.562216 -0.88,-1.276365 0,-1.455729 0.712909,-1.844681 2.504774,-1.366563 3.147264,0.839774 6.680006,3.988025 8.674816,7.730677 0.54562,1.023674 1.47833,3.348164 2.07271,5.165534 l 1.08068,3.304309 1.54338,0.223466 c 0.84885,0.122908 1.55655,0.194908 1.57264,0.16 0.97941,-2.123652 3.36303,-5.410372 5.40355,-7.450819 3.12665,-3.126538 5.36678,-4.312275 8.58322,-4.543238 2.29542,-0.164827 3.12423,0.160653 3.12423,1.226916 0,0.951265 -0.81274,1.477088 -2.61254,1.690247 -3.86885,0.458208 -7.68421,3.423855 -10.49782,8.15987 -1.37123,2.308124 -1.57404,3.259164 -0.82718,3.879004 0.25436,0.211095 0.70359,1.109776 0.9983,1.997072 1.88649,5.679664 -3.89991,11.416378 -9.49754,9.416004 z m 5.40742,-0.963933 c 0.83015,-0.420979 1.75344,-1.035568 2.05176,-1.365757 0.95407,-1.055968 1.84355,-3.4244 1.84355,-4.908832 0,-1.437786 -0.88423,-3.886314 -1.55263,-4.299408 -1.718,-1.061782 4.2564,-9.341055 8.09625,-11.219719 0.91743,-0.448859 2.59559,-1.00462 3.72925,-1.235024 1.74887,-0.355443 2.07739,-0.529498 2.1682,-1.148724 0.10441,-0.71201 0.0498,-0.726903 -2.24,-0.610782 -1.77115,0.08982 -2.81811,0.347896 -4.26702,1.051822 -2.52257,1.225547 -6.0402,4.752682 -7.84063,7.861835 -0.76438,1.32 -1.57432,2.555034 -1.79986,2.744518 -0.39559,0.332343 -3.42104,0.140615 -3.80264,-0.240979 -0.0948,-0.09481 -0.464,-1.236896 -0.82042,-2.537963 -1.05813,-3.862596 -3.24475,-8.013895 -5.34275,-10.143246 -2.798305,-2.840116 -6.701041,-4.479266 -7.251223,-3.045517 -0.270314,0.704428 0.270502,1.156489 2.217523,1.853596 2.166202,0.775583 5.17667,3.831091 6.49386,6.591006 0.54338,1.138544 1.34577,3.291493 1.7831,4.784332 l 0.79513,2.714253 -1.55588,1.44 c -2.06655,1.91264 -2.55621,3.00097 -2.55621,5.681459 0,1.867757 0.137,2.409267 0.92316,3.648909 1.83743,2.897322 5.81887,3.960627 8.92748,2.384221 z"
         id="path492" />
      <path
         style="fill:#b26922;stroke-width:0.32"
         d="M 32.033843,155.87161 C 31.458071,155.33376 31.04,154.6214 31.04,154.17819 c 0,-0.69394 0.941753,-3.34263 3.789571,-10.65819 4.496909,-11.55179 4.560035,-11.73859 4.140346,-12.25115 -0.32016,-0.39101 -0.219178,-0.3765 0.461197,0.0662 0.47911,0.31178 2.094841,0.9604 3.590512,1.44138 1.633443,0.52529 2.605897,0.99212 2.435177,1.16902 -0.302483,0.31343 -2.367853,5.30454 -6.080733,14.69451 -2.862355,7.23897 -2.848112,7.21202 -4.085792,7.72948 -1.51392,0.63296 -2.149987,0.53571 -3.256435,-0.49787 z M 41.559181,126.8 c -0.398039,-0.50754 -0.38672,-0.51886 0.120819,-0.12082 0.53304,0.41804 0.702554,0.68082 0.439181,0.68082 -0.06645,0 -0.318448,-0.252 -0.56,-0.56 z m -1.739312,-1.44 -0.939869,-1.04 1.04,0.93987 c 0.969427,0.87609 1.187088,1.14013 0.939869,1.14013 -0.05507,0 -0.523072,-0.468 -1.04,-1.04 z m -1.780688,-1.44 c -0.398039,-0.50754 -0.38672,-0.51886 0.120819,-0.12082 0.308,0.24155 0.56,0.49355 0.56,0.56 0,0.26337 -0.262781,0.0939 -0.680819,-0.43918 z m -3.669584,-4 -0.609597,-0.72 0.72,0.6096 c 0.676621,0.57287 0.865677,0.8304 0.609597,0.8304 -0.06072,0 -0.384723,-0.324 -0.72,-0.72 z m -1.28,-1.6 -0.609597,-0.72 0.72,0.6096 c 0.676621,0.57287 0.865677,0.8304 0.609597,0.8304 -0.06072,0 -0.384723,-0.324 -0.72,-0.72 z m -1.130415,-1.44 c -0.398038,-0.50754 -0.38672,-0.51886 0.120818,-0.12082 0.308,0.24155 0.56,0.49355 0.56,0.56 0,0.26337 -0.262781,0.0939 -0.680818,-0.43918 z m 46.146082,-13.38667 c 0.01536,-0.37278 0.09118,-0.4486 0.193331,-0.19333 0.09244,0.231 0.08107,0.507 -0.02525,0.61333 -0.106336,0.10634 -0.181965,-0.0827 -0.16807,-0.42 z M 25.28,79.52 c 0.413358,-0.44 0.823561,-0.8 0.911561,-0.8 0.088,0 -0.178203,0.36 -0.591561,0.8 -0.413358,0.44 -0.823561,0.8 -0.911561,0.8 -0.088,0 0.178203,-0.36 0.591561,-0.8 z m 5.38,-3.258595 c 0.231,-0.09244 0.507,-0.08107 0.613333,0.02525 0.106334,0.106333 -0.08267,0.181965 -0.42,0.16807 -0.372781,-0.01536 -0.448608,-0.09118 -0.193333,-0.193331 z m 40.22,-18.12785 c -1.125859,-0.790009 -1.959798,-1.623165 -2.016218,-2.014323 -0.05292,-0.36689 0.393824,-1.947808 0.992765,-3.513152 0.598938,-1.565344 1.856304,-4.86208 2.794141,-7.32608 0.937837,-2.464 1.737139,-4.526045 1.776224,-4.582323 0.123872,-0.178352 2.799651,1.269939 4.218227,2.283152 0.77113,0.550774 1.218275,1.065814 1.027619,1.183648 C 79.374589,44.348755 78.36847,46.772739 76.95177,50.72 75.043949,56.035632 73.623558,59.368819 73.244211,59.420403 72.999894,59.453626 71.936,58.874544 70.88,58.133555 Z M 69.76,38.72 c -0.264,-0.170611 -0.336,-0.310198 -0.16,-0.310198 0.176,0 0.536,0.139587 0.8,0.310198 0.264,0.170611 0.336,0.310198 0.16,0.310198 -0.176,0 -0.536,-0.139587 -0.8,-0.310198 z m 11.980426,-2.547574 c -0.169165,-0.169165 -1.424048,-0.943824 -2.788634,-1.721466 -1.740918,-0.992106 -2.312621,-1.459328 -1.916426,-1.566205 0.358992,-0.09684 0.844208,-0.955823 1.332266,-2.358533 1.020806,-2.933866 2.673373,-6.20779 6.448512,-12.775244 1.722733,-2.996962 3.384317,-6.079027 3.692413,-6.849032 C 89.064586,9.5122874 89.063331,9.4975674 88.338912,8.9109683 87.40247,8.1526826 86.883584,8.1667024 85.557747,8.986113 84.611101,9.5711741 84.456422,9.5909018 84.286557,9.1482422 84.048246,8.5272147 85.13967,6.3678963 86.592509,4.5860518 c 1.450966,-1.7795494 3.04232,-2.7339943 4.346589,-2.6069537 0.92383,0.089985 1.065228,0.239395 1.306848,1.3809019 0.644483,3.0448032 -0.397319,6.870622 -6.292416,23.10765 -1.866442,5.14079 -3.39353,9.496619 -3.39353,9.67962 0,0.417088 -0.414906,0.429824 -0.819574,0.02515 z"
         id="path490" />
      <path
         style="fill:#715431;stroke-width:0.32"
         d="M 42.24,132.5332 C 34.888214,129.86514 27.82786,121.84586 21.767356,109.28 c -3.019767,-6.26119 -3.399409,-7.181 -4.6164,-11.184736 -4.867642,-16.013898 0.794843,-25.103245 17.072903,-27.4052 1.795536,-0.253914 5.154893,-0.324611 10,-0.210445 4.043936,0.09529 7.296141,0.04809 7.296141,-0.105881 0,-0.152791 -1.444451,-2.039712 -3.209891,-4.193156 C 42.846384,59.516045 39.26809,53.659837 37.396835,48.32 36.799011,46.614038 36.665424,45.549469 36.653968,42.4 c -0.01277,-3.50713 0.0592,-3.992566 0.830141,-5.6 0.978601,-2.040422 2.082627,-3.293475 4.159465,-4.720931 3.420877,-2.351242 9.063834,-3.678905 15.636426,-3.678905 6.944118,0 11.971802,1.271831 19.36,4.897417 3.397811,1.667395 4.967792,2.716144 11.109709,7.421299 1.165459,0.892826 4.937235,5.606358 6.792985,8.489088 3.402951,5.28616 6.131936,11.774557 7.567356,17.992032 0.9869,4.274698 1.21847,12.30216 0.46251,16.032957 -1.47912,7.299779 -9.925357,24.297483 -16.543946,33.294013 -3.868745,5.25872 -9.572556,10.93155 -10.447536,10.39078 -0.586988,-0.36278 -0.747088,-5.91201 -0.253552,-8.78844 0.261338,-1.52312 0.641917,-3.92131 0.845735,-5.32931 0.203817,-1.408 0.716214,-3.62238 1.138659,-4.92084 0.422445,-1.29847 0.76808,-2.61175 0.76808,-2.91839 0,-0.86744 1.835027,-6.832757 2.680102,-8.712488 C 81.177555,95.319725 81.83527,93.696 82.221693,92.64 84.442819,86.570208 90.129286,77.420403 94.811043,72.383123 96.600138,70.458166 96.591798,70.966125 94.921146,65.676192 94.263574,63.594064 93.034995,60.721344 92.011501,58.87271 91.037174,57.11289 90.24,55.58489 90.24,55.477155 c 0,-0.56104 -3.371424,-4.803219 -5.891654,-7.413328 -4.542263,-4.70424 -8.54464,-7.305229 -15.141328,-9.839747 -3.792663,-1.457184 -6.648189,-2.052762 -9.847018,-2.053795 -4.870867,-0.0016 -8.915674,1.482329 -10.812723,3.966819 -0.933178,1.222144 -1.160983,1.890976 -1.608784,4.723325 -0.357363,2.260326 -0.433923,3.702723 -0.243075,4.579571 0.153225,0.704 0.52248,2.576 0.820569,4.16 0.451287,2.398099 1.578071,5.928858 4.084903,12.8 0.192633,0.528 1.413846,3.099392 2.713808,5.714202 1.299961,2.614809 2.308684,4.809081 2.241606,4.87616 -0.06708,0.06708 -1.695686,-0.238695 -3.619133,-0.679495 C 49.587536,75.543219 41.716902,74.768778 38.24,74.864717 c -2.192294,0.06049 -8.119119,1.418169 -9.690518,2.219837 -3.385146,1.726972 -6.142129,5.86574 -6.844844,10.275446 -0.520358,3.26537 -0.480805,4.343392 0.323904,8.827997 0.549845,3.064259 1.049813,4.660103 2.406094,7.680003 0.941616,2.0966 2.299223,4.77052 3.016904,5.94203 0.717682,1.17152 1.588991,2.68695 1.936242,3.36761 1.049958,2.05809 6.824468,9.09862 9.095597,11.08975 3.719421,3.26086 6.705687,5.33196 9.911687,6.87416 1.713286,0.82415 3.117286,1.58761 3.12,1.69658 0.0079,0.31789 -2.21288,0.59599 -4.635066,0.58044 -1.60895,-0.0103 -2.916125,-0.25976 -4.64,-0.88537 z M 86.253043,113.04 c 3.50129,-4.40533 7.134522,-11.73228 9.102336,-18.356189 1.386739,-4.667949 2.564749,-10.57191 2.563719,-12.848905 -0.0013,-2.885514 -0.630032,-7.690436 -1.065565,-8.143335 -0.472717,-0.491565 -0.70129,-0.323897 -2.492589,1.828429 -3.570336,4.28992 -7.248886,10.956266 -9.025578,16.356346 -2.403222,7.304361 -3.401808,17.788424 -2.091993,21.963654 0.488121,1.55596 1.311049,1.33721 3.00967,-0.8 z m 29.053337,16.28766 c -3.20024,-1.10593 -4.91454,-2.93873 -5.73152,-6.12772 -0.64078,-2.50121 -0.23564,-5.26266 1.21991,-8.31494 1.23009,-2.5795 5.23636,-6.66632 8.24528,-8.41108 2.49266,-1.4454 6.83952,-3.17449 8.12585,-3.23231 1.28645,-0.0578 1.38444,0.58534 0.16607,1.09 -2.76828,1.14666 -7.1852,5.23331 -9.58752,8.87062 -3.85567,5.8378 -3.95432,11.47703 -0.24775,14.16206 3.69179,2.67431 9.78767,-0.13021 14.87262,-6.84242 1.98444,-2.61947 5.03734,-9.01526 5.85645,-12.26919 3.25517,-12.931122 -0.26602,-20.925272 -10.25399,-23.279586 -3.59142,-0.84655 -3.76884,-0.793856 -6.75052,2.00497 -5.05621,4.746147 -9.39104,8.428256 -12.10122,10.279082 -2.95567,2.018464 -5.32552,3.317534 -5.76752,3.161554 -0.38719,-0.13665 1.62504,-4.660969 2.91215,-6.547702 3.64805,-5.347568 7.2414,-7.976361 13.76933,-10.073238 l 3.24565,-1.042554 3.37906,-3.697603 c 12.32218,-13.483769 16.23661,-21.937459 12.31567,-26.597225 -1.04407,-1.240807 -2.23808,-1.845149 -4.45529,-2.255021 -5.62481,-1.039805 -15.12043,3.771014 -24.38441,12.354022 -1.6039,1.486 -2.08562,1.781165 -2.3151,1.418535 -0.5821,-0.919844 -0.25964,-1.534538 1.70042,-3.241485 9.95037,-8.665418 19.63739,-14.250135 26.48,-15.266119 8.75336,-1.299692 14.00767,4.673226 10.79961,12.276631 -2.24042,5.310009 -7.86888,12.323712 -16.49089,20.549523 -4.17064,3.978995 -4.25822,4.285837 -1.27051,4.45159 4.02826,0.223479 8.35454,1.65648 11.17959,3.703031 6.77097,4.905085 8.10224,15.891795 3.15653,26.050165 -5.19884,10.67829 -14.56898,17.42372 -24.17433,17.40275 -1.30733,-0.003 -2.92852,-0.24283 -3.89362,-0.57634 z m -9.11674,-80.999561 c -1.50941,-0.455997 -2.82391,-1.40543 -3.7039,-2.675254 -1.11852,-1.614029 -1.38244,-4.67888 -0.58313,-6.771837 0.49086,-1.285312 2.36479,-3.361008 3.03429,-3.361008 0.60424,0 0.60012,-1.040704 -0.0129,-3.264349 -0.944,-3.424111 -2.61909,-6.677993 -4.49383,-8.729256 C 98.89536,21.847071 96.299226,20.16 95.249821,20.16 c -0.670439,0 -1.210938,-0.800504 -0.967987,-1.433626 0.516448,-1.345844 4.561744,0.384225 7.227876,3.091178 2.09665,2.128745 3.87697,5.528652 5.20554,9.941109 0.89427,2.970053 0.75787,2.833694 3.24532,3.244373 1.28967,0.212924 1.64017,-0.104224 3.3188,-3.003034 1.81967,-3.142371 5.32561,-6.648696 7.84063,-7.841503 1.51338,-0.717754 2.39439,-0.915675 4.16,-0.93455 2.02953,-0.0217 2.24,0.03577 2.24,0.611646 0,0.527114 -0.30038,0.677788 -1.76,0.882825 -4.04667,0.568449 -8.24918,3.877287 -11.17103,8.79548 -1.38972,2.339248 -1.59547,3.289968 -0.84651,3.911548 0.80031,0.664196 1.55266,3.475226 1.34182,5.013466 -0.21731,1.585478 -1.12233,3.535357 -2.01598,4.343491 -1.66506,1.505712 -4.73071,2.194589 -6.87866,1.545696 z"
         id="path488" />
    </g>
  </g>
</svg>
